<?xml version="1.0" encoding="utf-8"?>
<!-- Generator: Adobe Illustrator 25.1.0, SVG Export Plug-In . SVG Version: 6.00 Build 0)  -->
<svg version="1.1" id="Layer_3" xmlns="http://www.w3.org/2000/svg" xmlns:xlink="http://www.w3.org/1999/xlink" x="0px" y="0px"
	 viewBox="0 0 6624 720" style="enable-background:new 0 0 6624 720;" xml:space="preserve">
<style type="text/css">
	* {opacity: 90%;}
	.st0{fill:#D4D4D4;stroke:#000000;stroke-width:20;stroke-miterlimit:10;}
	.st1{fill:none;stroke:#000000;stroke-width:20;stroke-miterlimit:10;}
	.st2{stroke:#000000;stroke-miterlimit:10;}
	.st3{fill:#D4D4D4;stroke:#000000;stroke-width:20;stroke-linecap:round;stroke-linejoin:round;stroke-miterlimit:10;}
	.st4{fill:#FFFFFF;stroke:#000000;stroke-width:20;stroke-miterlimit:10;}
	.st5{stroke:#000000;stroke-width:5;stroke-linecap:round;stroke-linejoin:round;stroke-miterlimit:10;}
	.st6{fill:#D4D4D4;stroke:#000000;stroke-width:5;stroke-linecap:round;stroke-linejoin:round;stroke-miterlimit:10;}
	.st7{fill:#FFFFFF;stroke:#000000;stroke-width:5;stroke-miterlimit:10;}
	.st8{fill:#FFFFFF;stroke:#000000;stroke-width:5;stroke-linecap:round;stroke-linejoin:round;stroke-miterlimit:10;}
	.st9{fill:#FFFFFF;stroke:#000000;stroke-width:20;stroke-linecap:round;stroke-linejoin:round;stroke-miterlimit:10;}
	.st10{fill:none;stroke:#000000;stroke-width:20;stroke-linecap:round;stroke-linejoin:round;stroke-miterlimit:10;}
	.st11{fill:#FFFFFF;}
	.st12{stroke:#000000;stroke-width:20;stroke-linecap:round;stroke-linejoin:round;stroke-miterlimit:10;}
	.st13{stroke:#000000;stroke-width:5;stroke-miterlimit:10;}
	.st14{stroke:#000000;stroke-width:20;stroke-miterlimit:10;}
	.st15{fill:#D4D4D4;}
	.st16{fill:#D4D4D4;stroke:#000000;stroke-miterlimit:10;}
</style>
<g>
	<g id="Pig">
		<circle id="Head_40_" class="st0" cx="6350.24" cy="389.66" r="180"/>
		<circle id="Head_39_" class="st1" cx="6350.24" cy="386.9" r="180"/>
		<g id="Eyes_36_">
			<ellipse class="st2" cx="6299.14" cy="350.68" rx="21.5" ry="25.25"/>
			<ellipse class="st2" cx="6401.33" cy="350.68" rx="21.5" ry="25.25"/>
		</g>
		<g id="Ears_17_">
			<path class="st3" d="M6215.31,250.73c-0.92,7.36-5.32,13.94-11.84,17.94c-7.65,4.69-15.32,12.55-15.72,21.29
				c-0.48,10.61,9.63,17.38,24.99,25.54c0.18,0.1,0.44-0.04,0.62,0.05c17.2,8.42,43.71,9.94,66.1,3.56
				c9.65-2.74,15.93-7.82,16.52-17.43c1.1-18.05-6.42-38.79-13.71-56.55c-6.66-16.22-27.31-24.4-37-27.43
				c-3.48-1.09-7.28-0.83-10.55,0.76c-4.75,2.32-11.63,6.72-16.54,14.28C6215.3,237.19,6216.11,244.33,6215.31,250.73z"/>
			<path class="st3" d="M6485.16,250.73c0.92,7.36,5.32,13.94,11.84,17.94c7.65,4.69,15.32,12.55,15.72,21.29
				c0.48,10.61-9.63,17.38-24.99,25.54c-0.18,0.1-0.44-0.04-0.62,0.05c-17.2,8.42-43.71,9.94-66.1,3.56
				c-9.65-2.74-15.93-7.82-16.52-17.43c-1.1-18.05,6.42-38.79,13.71-56.55c6.66-16.22,27.31-24.4,37-27.43
				c3.48-1.09,7.28-0.83,10.55,0.76c4.75,2.32,11.63,6.72,16.54,14.28C6485.18,237.19,6484.36,244.33,6485.16,250.73z"/>
		</g>
		<ellipse id="Snout_2_" class="st3" cx="6350.24" cy="460.24" rx="67" ry="42.5"/>
		<g id="Nose_35_">
			<ellipse cx="6324.99" cy="455.06" rx="5" ry="10"/>
			<ellipse cx="6375.49" cy="455.06" rx="5" ry="10"/>
		</g>
	</g>
	<g id="Dog">
		<g id="Background_Ears_1_">
			<path class="st3" d="M6094.03,291.95c-3.81,9.1-7.22,18.37-9.53,27.96c-2.51,10.37-6.5,21.65-15.3,28
				c-7.29,5.25-16.91,4.58-23.6-0.67c3.29,13.6,5.03,27.81,5.03,42.42c0,99.41-80.59,180-180,180s-180-80.59-180-180
				c0-14.61,1.74-28.82,5.03-42.42c-6.69,5.25-16.31,5.92-23.6,0.67c-8.8-6.35-12.79-17.63-15.3-28
				c-2.31-9.59-5.72-18.86-9.53-27.96c-7.69-18.33-3.16-49.02,0.52-66.71c1.76-8.52,7.21-15.81,14.89-19.87l50.58-26.77
				c7.68-4.07,16.77-4.47,24.8-1.15c15.33,6.35,43.17,17.58,62.18,46.52c21.63-9.21,45.44-14.31,70.43-14.31
				c25,0,48.8,5.1,70.44,14.31c19-28.94,46.84-40.17,62.18-46.52c8.03-3.32,17.11-2.92,24.79,1.15l50.58,26.77
				c7.68,4.06,13.13,11.35,14.89,19.87C6097.19,242.93,6101.73,273.62,6094.03,291.95z"/>
		</g>
		<path class="st3" d="M5983.69,249.59c40.83,33,66.95,83.49,66.95,140.08c0,99.41-80.59,180-180,180c-99.41,0-180-80.59-180-180
			c0-55.92,25.5-105.88,65.5-138.9"/>
		<path id="Nose_34_" d="M5859.76,414.63c8.4-1.88,17.41-2.19,25.04,0.53c1.7,0.61,3.3,1.54,4.59,2.88
			c4.52,4.71,2.62,10.4,0.17,14.97c-2.54,4.74-5.83,9.14-10.14,12.02c-4.31,2.88-9.74,4.07-14.54,2.33
			c-4.75-1.72-8.39-6.04-11.41-10.14c-1.48-2.01-2.56-4.32-3.19-6.8l0,0C5846.53,419.69,5852.57,416.24,5859.76,414.63z"/>
		<g id="Eyes_35_">
			<ellipse class="st2" cx="5819.54" cy="350.68" rx="21.5" ry="25.25"/>
			<ellipse class="st2" cx="5921.73" cy="350.68" rx="21.5" ry="25.25"/>
		</g>
		<g id="Foreground_Ears_5_">
			<path class="st3" d="M5946.03,217.53c14.12-17.28,39.53-32.78,57.22-40.1c8.03-3.32,17.12-2.92,24.8,1.15l50.58,26.77
				c7.68,4.07,13.13,11.36,14.89,19.87c3.67,17.7,8.21,48.39,0.52,66.72c-3.92,9.34-7.29,18.89-9.72,28.71
				c-2.52,10.16-6.52,21.05-15.11,27.24c-9.33,6.72-22.47,3.83-28.37-6.04c-20.5-34.31-30.6-74.76-28.58-114.69"/>
			<path class="st3" d="M5795.23,217.53c-14.12-17.28-39.53-32.78-57.22-40.1c-8.03-3.32-17.12-2.92-24.8,1.15l-50.58,26.77
				c-7.68,4.07-13.13,11.36-14.89,19.87c-3.67,17.7-8.21,48.39-0.52,66.72c3.92,9.34,7.29,18.89,9.72,28.71
				c2.52,10.16,6.52,21.05,15.11,27.24c9.33,6.72,22.47,3.83,28.37-6.04c20.5-34.31,30.6-74.76,28.58-114.69"/>
		</g>
	</g>
	<g id="Rooster">
		<circle id="Head_38_" class="st4" cx="5391.03" cy="391.44" r="180"/>
		<path class="st5" d="M5379.71,501.41c-14.96,21.21-21.97,47.89-19.35,73.71c0.5,4.96,5.68,8.56,10.66,8.41
			c4.98-0.15,9.48-3.33,12.45-7.32c2.97-4,4.67-8.77,6.33-13.47c0.92,5.45,1.88,11.01,4.41,15.93s6.92,9.2,12.37,10.17
			c5.45,0.97,11.73-2.27,12.9-7.67c6.33-29.03,1.07-60.43-14.39-85.81"/>
		<path id="Nose_33_" class="st6" d="M5375.33,460.12c13.68-2.8,28.34-3.26,40.76,0.79c2.76,0.9,5.38,2.28,7.48,4.27
			c7.37,6.99,4.27,15.45,0.28,22.25c-4.14,7.04-9.78,13.13-16.5,17.85c-13.71,9.63-16.55,9.72-25.93,2.21
			c-12.06-9.66-17.17-16.29-21.52-23.92v0C5353.8,467.64,5363.62,462.52,5375.33,460.12z"/>
		<g id="Eyes_34_">
			<ellipse class="st2" cx="5339.94" cy="352.46" rx="21.5" ry="25.25"/>
			<ellipse class="st2" cx="5442.13" cy="352.46" rx="21.5" ry="25.25"/>
		</g>
		<path class="st5" d="M5438.3,202.82c2.89-10.24-0.1-22.78-10.34-25.68c-10.24-2.9-22.03,5.8-22.27,16.44
			c0.2-8.42,0.38-17.01-2.06-25.08c-3.42-11.34-12.96-21.76-26.82-18.97l8.62-0.12c-13.95-2.29-23.11,8.47-26.12,19.92
			c-2.14,8.15-1.66,16.73-1.16,25.14c-0.63-10.62-12.72-18.9-22.85-15.63c-9.65,3.11-13.38,15.25-10.15,24.73
			c7.6,22.25,34.95,46.54,48.49,57.54c4.47,3.64,10.88,3.65,15.35,0.02C5403.11,249.68,5432.33,223.95,5438.3,202.82z"/>
	</g>
	<g id="Monkey">
		<path id="Head_37_" class="st0" d="M5074.7,344.38c3.18,13.38,4.86,27.34,4.86,41.69c0,99.42-80.59,180-180,180
			s-180-80.58-180-180c0-17.97,2.01-44.64,2.01-44.64c-36.51-5.42-66.67-40.51-67.52-78.54c-0.85-38.03,27.71-74.52,63.94-81.67
			c35.98-7.09,75.28,15.58,88.38,50.83c27.18-16.49,59.08-25.98,93.19-25.98c32.59,0,63.15,8.66,89.52,23.8
			c15.01-31.97,51.99-51.85,85.98-45.14c36.23,7.15,64.8,43.63,63.95,81.67C5138.19,303.3,5109.75,337.44,5074.7,344.38z"/>
		<g id="Ears_13_">
			<path class="st7" d="M4779.8,250.77c-7.45-19.46-30.49-32.02-51.55-28.12c-21.07,3.9-37.68,23.8-37.19,44.54
				c0.49,20.74,18.04,39.88,39.27,42.84L4779.8,250.77z"/>
			<path class="st7" d="M5013.19,253.68c7.45-19.46,30.49-32.02,51.55-28.12c21.07,3.9,37.68,23.8,37.19,44.54
				c-0.49,20.74-18.04,39.88-39.27,42.84L5013.19,253.68z"/>
		</g>
		<g>
			<g>
				<path class="st8" d="M4971.03,284.27c-14.52-2.78-29.94-0.39-39.99,10.45c-9.86,10.62-26.36,36.24-31.67,50.37
					c-5.68-14.31-21.65-39-31.28-49.37c-10.05-10.83-25.47-13.23-39.99-10.45c-74.26,14.22-92.94,99.16-80.57,163.1
					c12.37,63.94,89.66,116.09,154.58,121.29l-5.1-1c64.92-5.2,142.21-57.34,154.58-121.29
					C5063.97,383.43,5045.29,298.49,4971.03,284.27z"/>
			</g>
		</g>
		<g id="Head_36_">
			<path class="st1" d="M5074.7,344.38c3.18,13.38,4.86,27.34,4.86,41.69c0,99.42-80.59,180-180,180s-180-80.58-180-180
				c0-17.97,2.01-44.64,2.01-44.64c-36.51-5.42-66.67-40.51-67.52-78.54c-0.85-38.03,27.71-74.52,63.94-81.67
				c35.98-7.09,75.28,15.58,88.38,50.83c27.18-16.49,59.08-25.98,93.19-25.98c32.59,0,63.15,8.66,89.52,23.8
				c15.01-31.97,51.99-51.85,85.98-45.14c36.23,7.15,64.8,43.63,63.95,81.67C5138.19,303.3,5109.75,337.44,5074.7,344.38z"/>
		</g>
		<path id="Nose_32_" d="M4888.69,454.04c8.4-1.88,17.41-2.19,25.04,0.53c1.7,0.61,3.3,1.54,4.59,2.88
			c4.52,4.71,2.62,10.4,0.17,14.97c-2.54,4.74-5.83,9.14-10.14,12.02c-4.31,2.88-9.74,4.07-14.54,2.33
			c-4.75-1.72-8.39-6.04-11.41-10.14c-1.48-2.01-2.56-4.32-3.19-6.8v0C4875.46,459.1,4881.5,455.65,4888.69,454.04z"/>
		<g id="Eyes_33_">
			<ellipse class="st2" cx="4848.47" cy="390.09" rx="21.5" ry="25.25"/>
			<ellipse class="st2" cx="4950.66" cy="390.09" rx="21.5" ry="25.25"/>
		</g>
	</g>
	<g id="Sheep">
		<g id="Horns_5_">
			<path class="st3" d="M4248.04,244.61c-2.96-25.68-46.78-50.5-72.55-52.64s-51.44,12.8-64.84,34.91
				c-13.4,22.11-15.17,50.19-7.53,74.89c6.57,21.25,19.62,40.07,35.83,55.4c2.68,2.54,7.08,0.32,6.62-3.34
				c-8.66-69.74,15.14-95.29,32.49-94.19c11.79,0.75,23.45,8.11,25.95,19.66L4248.04,244.61z"/>
			<path class="st3" d="M4432.6,241.61c2.96-25.68,46.78-50.5,72.55-52.64s51.44,12.8,64.84,34.91
				c13.4,22.11,15.17,50.19,7.53,74.89c-6.57,21.25-19.62,40.07-35.83,55.4c-2.68,2.54-7.08,0.32-6.62-3.34
				c8.66-69.74-15.14-95.29-32.49-94.19c-11.79,0.75-23.45,8.11-25.95,19.66L4432.6,241.61z"/>
		</g>
		<circle id="Head_35_" class="st4" cx="4340.32" cy="389.66" r="180"/>
		<path class="st9" d="M4303.08,233.86c-5.41,12.22-23.44,18.98-37.52,14.07c-14.09-4.91-21.57-20.55-15.58-32.57
			c-11.21-2.22-19.23-12.76-17.11-22.48c2.12-9.73,14.02-17.05,25.4-15.64c11.38,1.42,20.38,11.35,19.21,21.19
			c1.62-9.84,5.43-19.78,13.38-26.99c7.95-7.21,20.69-11.09,31.49-7.57s17.4,15.64,11.61,24.24c4.32-14.31,15.21-27.83,31.21-33.21
			c16-5.38,36.91-0.39,44.42,12.9c7.51,13.29-11.89,36.18-1.75,29.3c25.7-17.41,45.44,13.17,39.06,25.03
			c-6.38,11.85-29.01,13.28-42.48,6.6c10.91,5.39,13.25,19.67,5.62,28.27c-7.63,8.6-22.78,10.84-34.12,6.17
			s-18.62-15.18-19.82-25.95c2.92,12.83-11.58,26.21-26.66,24.62C4314.37,260.26,4304.08,244.25,4303.08,233.86z"/>
		<g id="Eyes_32_">
			<ellipse class="st2" cx="4289.23" cy="350.68" rx="21.5" ry="25.25"/>
			<ellipse class="st2" cx="4391.41" cy="350.68" rx="21.5" ry="25.25"/>
		</g>
		<path id="Nose_31_" class="st10" d="M4322.32,457.29c14.2,24.31,18.64,21.01,36,1.56"/>
	</g>
	<g id="Horse">
		<g id="Head_34_">
			<path class="st9" d="M4026.6,389.66c0,99.41-80.59,180-180,180s-180-80.59-180-180c0-29.33,15.12-77.09,15.12-77.09h-0.63
				c-2.26-54.52,17.25-109.41,52.98-150.62c3.47-4,11.3-2.03,12.47,3.13c4.98,21.99,9.94,43.97,14.92,65.96
				c25.35-13.64,54.34-21.38,85.14-21.38c31.33,0,60.79,8,86.44,22.08l-0.13-0.13c5.02-22.18,10.03-44.35,15.05-66.53
				c1.16-5.16,9-7.13,12.46-3.13c35.73,41.21,55.25,96.1,52.99,150.62h-0.64C4012.77,312.57,4026.6,359.22,4026.6,389.66z"/>
		</g>
		<path id="Mouth_8_" class="st2" d="M3954.3,492.67c0,16.21-4.75,31.45-13.12,44.74c-27.48,17.01-59.88,26.82-94.58,26.82
			c-34.69,0-67.09-9.81-94.57-26.82c-8.37-13.29-13.12-28.53-13.12-44.74c0-51.64,48.22-93.5,107.69-93.5
			C3906.08,399.17,3954.3,441.03,3954.3,492.67z"/>
		<g id="Eyes_31_">
			<ellipse class="st2" cx="3795.51" cy="350.68" rx="21.5" ry="25.25"/>
			<ellipse class="st2" cx="3897.69" cy="350.68" rx="21.5" ry="25.25"/>
		</g>
		<g id="Nose_30_">
			<ellipse class="st11" cx="3822.99" cy="455.06" rx="5" ry="10"/>
			<ellipse class="st11" cx="3873.49" cy="455.06" rx="5" ry="10"/>
		</g>
		<path id="Hair_1_" class="st12" d="M3799.95,199.38c-6.93,31.72,4.75,66.82,29.31,88.06c24.56,21.24,60.97,27.75,91.36,16.32
			c-21.51-16.24-32.17-45.63-26.08-71.89c2.9-12.51-3.66-25.99-14.04-33.56s-23.85-9.89-36.66-8.98
			C3831.03,190.24,3818.64,194.12,3799.95,199.38z"/>
	</g>
	<g id="Snake">
		<path class="st5" d="M3390.55,551.12c10.03,5.69,15.69,18.62,13.2,30.2c-2.91,13.53,2.66,25.95,13.99,33.31
			c11.58,7.53,30.56,12.32,38.45,13.24c1,0.12,1.53-1.18,0.77-1.84c-7.79-6.78-11.4-11.66-18.91-15.75
			c-0.7-0.38-0.56-1.45,0.21-1.65c9.11-2.3,14.69-5.84,23.65-6.15c0.76-0.03,0.9-1.15,0.17-1.38c-14.24-4.61-16.16-2.12-31.92-6.9
			c-3.79-1.15-6.89-4.17-7.95-8.11c-1.5-5.59-0.33-11.56,0.79-17.27c1.14-5.84,1.11-14.46-5.01-18.94"/>
		<path id="Head_30_" class="st0" d="M3229.07,389.98c-32.34-94,80.59-180,180-180c99.41,0,211.94,85.86,180,180
			c-35.5,104.63-140.13,180-180,180C3374.24,569.98,3260.98,482.74,3229.07,389.98z"/>
		<g id="Eyes_30_">
			<ellipse class="st2" cx="3357.92" cy="350.99" rx="21.5" ry="25.25"/>
			<ellipse class="st2" cx="3460.11" cy="350.99" rx="21.5" ry="25.25"/>
		</g>
		<g id="Nose_29_">
			<ellipse cx="3383.77" cy="495.38" rx="5" ry="10"/>
			<ellipse cx="3434.27" cy="495.38" rx="5" ry="10"/>
		</g>
	</g>
	<g id="Dragon">
		<g>
			<path class="st9" d="M2862.86,207.23c-3.6-10.13-1.79-21.2-0.77-32.24s1.15-22.39,1.99-33.45c0.84-11.06,0.28-22.68-3.79-32.52
				s-12.25-17.47-20.97-16.86c-8.73,0.61-15.93,8.14-16.75,18.25c-1.39,17.05,19.21,45.46,11.31,71.01c-1.55,5-6.93,5.86-9.24,1.36
				c-2.78-5.42-15.15-28.73-18.73-32.31c-5.61-5.61-18.49-3.85-19.3,8.5c-2.07,31.78,20.11,52.15,33.67,69.4"/>
			<path class="st9" d="M2965.01,207.23c3.6-10.13,1.79-21.2,0.77-32.24c-1.01-11.04-1.15-22.39-1.99-33.45
				c-0.84-11.06-0.28-22.68,3.79-32.52c4.07-9.84,12.25-17.47,20.97-16.86c8.73,0.61,15.93,8.14,16.75,18.25
				c1.39,17.05-19.21,45.46-11.31,71.01c1.55,5,6.93,5.86,9.24,1.36c2.78-5.42,15.15-28.73,18.73-32.31
				c5.61-5.61,18.49-3.85,19.3,8.5c2.07,31.78-20.11,52.15-33.67,69.4"/>
		</g>
		<path id="Head_28_" class="st0" d="M3146.07,329.55c-18.67,7.57-38.98,11.09-59.11,10.35c4.54,15.8,6.97,32.5,6.97,49.76
			c0,99.41-80.59,180-180,180s-180-80.59-180-180c0-17.3,2.44-34.03,7-49.86c-19.53,1.02-39.28-1.99-57.61-8.82
			c-7.88-2.93-9.32-13.39-2.61-18.45c27.01-20.38,59.74-33.16,93.45-36.29c33-40.62,83.35-66.58,139.77-66.58
			c56.52,0,106.96,26.05,139.96,66.81c34.24,3.63,67.36,17.2,94.35,38.56C3153.34,319.07,3152.1,327.11,3146.07,329.55z"/>
		<g id="Eyes_29_">
			<ellipse class="st2" cx="2862.84" cy="350.68" rx="21.5" ry="25.25"/>
			<ellipse class="st2" cx="2965.03" cy="350.68" rx="21.5" ry="25.25"/>
		</g>
		<g id="Nose_28_">
			<ellipse cx="2888.69" cy="455.06" rx="5" ry="10"/>
			<ellipse cx="2939.19" cy="455.06" rx="5" ry="10"/>
		</g>
		<g id="Whisker_2_">
			<path class="st10" d="M2856.05,451.05c-14.52-15.68-40.62-13.05-59.4-2.86c-18.78,10.19-42.91,44.27-61.91,54.04
				c-19,9.78-39.37,6.85-49.92-23.41"/>
			<path class="st10" d="M2971.82,451.05c14.52-15.68,40.62-13.05,59.4-2.86c18.78,10.19,42.91,44.27,61.91,54.04
				c19,9.78,39.37,6.85,49.92-23.41"/>
		</g>
	</g>
	<g id="Rabbit">
		<path class="st9" d="M2585.07,521.62c-3.65,11.83-15.43,20.59-27.76,20.9h-0.12c-12.91-0.45-24.91-10.32-27.84-22.9
			c-4.62-19.83-8.73-39.33-12.28-58.65c-0.35,0.8-0.7,1.6-1.06,2.39c-28.15,62.66-91.1,106.3-164.26,106.3
			c-64.85,0-121.68-34.29-153.37-85.72c-2.41,11.8-5.02,23.68-7.82,35.68c-2.93,12.58-14.93,22.45-27.84,22.9
			c-12.91,0.45-25.58-8.55-29.38-20.9c-36.03-116.89-21.17-248.38,39.24-354.63c6.54-11.52,21.18-18.49,32.96-12.42
			c28.27,14.56,47.24,26.67,78.91,58.34l1.97,0.09c18.43-6.38,38.23-9.84,58.83-9.84c26.05,0,50.8,5.53,73.15,15.48
			c0,0,0.26,0.12,0,0h0.03c27.68-27.02,67.6-52.14,89.83-61.68c2.23-0.96,4.27-1.76,6.11-2.39c5.84-2,11.97-1.94,17.52-0.13
			c5.71,2.47,10.77,6.98,13.94,12.55C2606.24,273.24,2621.1,404.73,2585.07,521.62z"/>
		<path class="st9" d="M2244.94,244.77c-9.73,7.19-18.71,15.33-26.8,24.29"/>
		<path class="st9" d="M2466.03,250.58c13.59,11.18,25.52,20.31,35.34,34.97"/>
		<path class="st9" d="M2285.62,213.28c18.66-6.55,38.73-10.11,59.63-10.11c26.35,0,51.38,5.66,73.93,15.83"/>
		<path id="Nose_27_" class="st5" d="M2340.88,414.63c8.4-1.88,17.41-2.19,25.04,0.53c1.7,0.61,3.3,1.54,4.59,2.88
			c4.52,4.71,2.62,10.4,0.17,14.97c-2.54,4.74-5.83,9.14-10.14,12.02c-4.31,2.88-9.74,4.07-14.54,2.33
			c-4.75-1.72-8.39-6.04-11.41-10.14c-1.48-2.01-2.56-4.32-3.19-6.8v0C2327.65,419.69,2333.69,416.24,2340.88,414.63z"/>
		<g id="Eyes_28_">
			<ellipse class="st2" cx="2300.66" cy="350.68" rx="21.5" ry="25.25"/>
			<ellipse class="st2" cx="2402.84" cy="350.68" rx="21.5" ry="25.25"/>
		</g>
		<g id="Foreground_Ears_4_">
			<path class="st9" d="M2284.44,212.91c-31.66-31.66-50.64-43.78-78.91-58.34c-11.78-6.07-26.41,0.9-32.96,12.42
				c-60.4,106.26-75.27,237.74-39.24,354.63c3.81,12.35,16.47,21.35,29.38,20.9c12.91-0.45,24.91-10.32,27.85-22.9
				c23.22-99.59,33.41-190.79,25.19-292.72"/>
			<path class="st9" d="M2419.96,218.41c30.89-30.89,64.64-49.28,92.91-63.84c11.78-6.07,26.41,0.9,32.96,12.42
				c60.41,106.26,75.27,237.74,39.24,354.63c-3.81,12.35-16.47,21.35-29.38,20.9c-12.91-0.45-24.91-10.32-27.85-22.9
				c-23.22-99.59-33.41-190.79-25.19-292.72"/>
		</g>
	</g>
	<g id="Tiger">
		<path id="Head_26_" class="st4" d="M2027.65,387.09c0,99.41-80.59,180-180,180c-99.41,0-180-80.59-180-180
			c0-20.01,3.27-39.26,9.3-57.25c-40.12-61.81-19.04-189.34,81.49-99.12c26.3-15.04,56.75-23.63,89.21-23.63
			c33.6,0,65.04,9.2,91.95,25.22c103.93-95.02,124.36,40.22,80.92,100.93C2020.52,333.24,2027.65,367.57,2027.65,387.09z"/>
		<path id="Mouth_7_" class="st8" d="M1957.34,498.09c0,16.21-4.75,31.45-13.11,44.74c-27.48,17.01-59.89,26.83-94.59,26.83
			c-34.69,0-67.1-9.82-94.58-26.83c-8.36-13.29-13.11-28.53-13.11-44.74c0-51.63,48.22-93.5,107.69-93.5
			C1909.12,404.59,1957.34,446.46,1957.34,498.09z"/>
		<path id="Nose_26_" d="M1836.77,412.06c8.4-1.88,17.41-2.19,25.04,0.53c1.7,0.61,3.3,1.54,4.59,2.88
			c4.52,4.71,2.62,10.4,0.17,14.97c-2.54,4.74-5.83,9.14-10.14,12.02c-4.31,2.88-9.74,4.07-14.54,2.33
			c-4.75-1.72-8.39-6.04-11.41-10.14c-1.48-2.01-2.56-4.32-3.19-6.8l0,0C1823.55,417.12,1829.58,413.67,1836.77,412.06z"/>
		<g id="Eyes_27_">
			<ellipse class="st2" cx="1796.56" cy="348.11" rx="21.5" ry="25.25"/>
			<ellipse class="st2" cx="1898.74" cy="348.11" rx="21.5" ry="25.25"/>
		</g>
		<g>
			<ellipse class="st2" cx="1847.65" cy="251.34" rx="12.5" ry="47"/>
			<ellipse class="st2" cx="1847.65" cy="244.34" rx="61" ry="6"/>
			<ellipse class="st2" cx="1847.65" cy="268.59" rx="82.5" ry="5"/>
			<ellipse class="st2" cx="1847.65" cy="224.57" rx="37.75" ry="3.5"/>
		</g>
		<g>
			<path class="st2" d="M1672.39,367.89c13.6,3.49,27.2,6.98,40.8,10.47c1.59,0.41,3.57,1.4,3.25,3c-0.14,0.72-0.73,1.24-1.3,1.7
				c-12.02,9.8-27.63,15.09-43.14,14.61"/>
			<path class="st2" d="M1676.05,423.1c19.42,4.33,38.84,8.66,58.27,12.99c2.26,0.5,5.1,1.73,4.64,3.73
				c-0.2,0.89-1.05,1.54-1.85,2.11c-17.16,12.16-39.46,18.73-61.6,18.13"/>
		</g>
		<g>
			<path class="st2" d="M2022.01,367.9c-13.6,3.49-27.2,6.98-40.8,10.47c-1.59,0.41-3.57,1.4-3.25,3c0.14,0.72,0.73,1.24,1.3,1.7
				c12.02,9.8,27.63,15.09,43.14,14.61"/>
			<path class="st2" d="M2018.35,423.1c-19.42,4.33-38.84,8.66-58.27,12.99c-2.26,0.5-5.1,1.73-4.64,3.73
				c0.2,0.89,1.05,1.54,1.85,2.11c17.16,12.16,39.46,18.73,61.6,18.13"/>
		</g>
	</g>
	<g id="Ox">
		<g id="Horns_4_">
			<path class="st4" d="M1236.25,247.27c-13.78-22.02-17.61-50.01-10.25-74.93c1.32-4.47,8.37-5.7,11.12-1.93
				c14.34,19.61,28.67,39.22,43.01,58.82"/>
			<path class="st4" d="M1460.21,247.27c13.78-22.02,17.61-50.01,10.25-74.93c-1.32-4.47-8.37-5.7-11.12-1.93
				c-14.34,19.61-28.67,39.22-43.01,58.82"/>
		</g>
		<g id="Head_25_">
			<path class="st0" d="M1580.47,332.31c-19.1,7.74-39.91,11.25-60.5,10.29c-0.26-0.01-0.52-0.02-0.78-0.04
				c4.44,15.41,6.87,31.67,6.99,48.48c-0.74,98.77-81.04,178.62-179.99,178.62c-98.95,0-179.25-79.85-179.99-178.62
				c0.12-16.77,2.54-33,6.96-48.38c-0.25,0.01-0.51,0.02-0.77,0.03c-18.57,0.58-37.27-2.46-54.68-8.95
				c-7.87-2.93-9.32-13.39-2.61-18.45c25.75-19.43,56.71-31.95,88.74-35.8c0.8-0.1,1.6-0.19,2.39-0.26
				c33-40.76,83.44-66.81,139.96-66.81c56.42,0,106.77,25.96,139.77,66.58c0.8,0.06,1.59,0.14,2.38,0.23
				c34.21,3.65,67.32,17.21,94.3,38.56C1587.74,321.83,1586.5,329.87,1580.47,332.31z"/>
		</g>
		<path id="Mouth_6_" class="st8" d="M1453.88,495.43c0,16.21-4.75,31.45-13.12,44.74c-27.48,17.01-59.88,26.82-94.58,26.82
			c-34.69,0-67.09-9.81-94.57-26.82c-8.37-13.29-13.12-28.53-13.12-44.74c0-51.64,48.22-93.5,107.69-93.5
			C1405.66,401.93,1453.88,443.79,1453.88,495.43z"/>
		<g id="Eyes_26_">
			<ellipse class="st2" cx="1295.09" cy="353.44" rx="21.5" ry="25.25"/>
			<ellipse class="st2" cx="1397.28" cy="353.44" rx="21.5" ry="25.25"/>
		</g>
		<g id="Nose_25_">
			<ellipse cx="1322.57" cy="457.82" rx="5" ry="10"/>
			<ellipse cx="1373.07" cy="457.82" rx="5" ry="10"/>
		</g>
	</g>
	<g id="Rat">
		<g id="Head_23_">
			<path class="st0" d="M969.62,345.02c0,0,2.77,27.31,2.77,44.64c0,99.41-80.58,180-180,180c-99.41,0-180-80.59-180-180
				c0-15.47,1.95-30.48,5.63-44.81c-36.91-5.93-67.24-40.71-68.1-78.37c-0.87-38.04,28.4-74.52,65.52-81.67
				c35.73-6.88,74.68,14.22,89.24,47.64c25.95-14.52,55.87-22.79,87.71-22.79c33.16,0,64.22,8.97,90.9,24.6
				c13.93-34.47,53.62-56.46,90-49.45c37.12,7.15,66.39,43.63,65.52,81.67C1037.94,304.51,1007.03,339.6,969.62,345.02z"/>
		</g>
		<g id="Ears_9_">
			<g id="Ears_11_">
				<path class="st13" d="M678.76,253.45c-7.64-21.2-31.24-34.9-52.82-30.65c-21.59,4.25-38.61,25.93-38.1,48.54
					s18.48,43.46,40.24,46.68L678.76,253.45z"/>
			</g>
			<g id="Ears_10_">
				<path class="st13" d="M904.96,253.45c7.64-21.2,31.24-34.9,52.82-30.65c21.59,4.25,38.61,25.93,38.1,48.54
					s-18.48,43.46-40.24,46.68L904.96,253.45z"/>
			</g>
		</g>
		<path id="Nose_24_" class="st5" d="M781.52,414.63c8.4-1.88,17.41-2.19,25.04,0.53c1.7,0.61,3.3,1.54,4.59,2.88
			c4.52,4.71,2.62,10.4,0.17,14.97c-2.54,4.74-5.83,9.14-10.14,12.02c-4.31,2.88-9.74,4.07-14.54,2.33
			c-4.75-1.72-8.39-6.04-11.41-10.14c-1.48-2.01-2.56-4.32-3.19-6.8v0C768.29,419.69,774.33,416.24,781.52,414.63z"/>
		<g id="Eyes_25_">
			<ellipse class="st2" cx="741.3" cy="350.68" rx="21.5" ry="25.25"/>
			<ellipse class="st2" cx="843.49" cy="350.68" rx="21.5" ry="25.25"/>
		</g>
	</g>
	<g id="Cat">
		<path id="Head_42_" class="st14" d="M463.59,389.66c0,99.41-80.59,180-180,180c-99.41,0-180-80.59-180-180
			c0-20.01,3.27-39.26,9.3-57.25c-40.12-61.81-19.04-189.34,81.49-99.12c26.3-15.04,56.75-23.63,89.21-23.63
			c33.6,0,65.04,9.2,91.95,25.22c103.93-95.02,124.36,40.22,80.92,100.93C456.46,335.81,463.59,370.14,463.59,389.66z"/>
		<path id="Nose_36_" class="st15" d="M272.71,414.63c8.4-1.88,17.41-2.19,25.04,0.53c1.7,0.61,3.3,1.54,4.59,2.88
			c4.52,4.71,2.62,10.4,0.17,14.97c-2.54,4.74-5.83,9.14-10.14,12.02c-4.31,2.88-9.74,4.07-14.54,2.33
			c-4.75-1.72-8.39-6.04-11.41-10.14c-1.48-2.01-2.56-4.32-3.19-6.8v0C259.49,419.69,265.52,416.24,272.71,414.63z"/>
		<g id="Eyes_37_">
			<ellipse class="st16" cx="232.5" cy="350.68" rx="21.5" ry="25.25"/>
			<ellipse class="st16" cx="334.68" cy="350.68" rx="21.5" ry="25.25"/>
		</g>
	</g>
</g>
</svg>
